<mxfile host="app.diagrams.net" modified="2023-05-07T15:46:02.226Z" agent="Mozilla/5.0 (Windows NT 10.0; Win64; x64) AppleWebKit/537.36 (KHTML, like Gecko) Chrome/111.0.0.0 Safari/537.36" etag="usv3dvhKK5v_Bbb1N-PU" version="21.2.9" type="github">
  <diagram name="Page-1" id="aoZcg5yaeoQDtuTYyz1z">
    <mxGraphModel dx="1064" dy="670" grid="1" gridSize="10" guides="1" tooltips="1" connect="1" arrows="1" fold="1" page="1" pageScale="1" pageWidth="850" pageHeight="1100" math="0" shadow="0">
      <root>
        <mxCell id="0" />
        <mxCell id="1" parent="0" />
        <mxCell id="onbcupAO0g3e7C_Z6MhB-1" value="Actor" style="shape=umlActor;verticalLabelPosition=bottom;verticalAlign=top;html=1;outlineConnect=0;" vertex="1" parent="1">
          <mxGeometry x="100" y="170" width="30" height="60" as="geometry" />
        </mxCell>
        <mxCell id="onbcupAO0g3e7C_Z6MhB-4" style="edgeStyle=orthogonalEdgeStyle;rounded=0;orthogonalLoop=1;jettySize=auto;html=1;" edge="1" parent="1" source="onbcupAO0g3e7C_Z6MhB-2" target="onbcupAO0g3e7C_Z6MhB-1">
          <mxGeometry relative="1" as="geometry" />
        </mxCell>
        <mxCell id="onbcupAO0g3e7C_Z6MhB-2" value="" style="swimlane;startSize=0;" vertex="1" parent="1">
          <mxGeometry x="270" y="100" width="200" height="200" as="geometry">
            <mxRectangle x="250" y="160" width="50" height="40" as="alternateBounds" />
          </mxGeometry>
        </mxCell>
        <mxCell id="onbcupAO0g3e7C_Z6MhB-5" style="edgeStyle=orthogonalEdgeStyle;rounded=0;orthogonalLoop=1;jettySize=auto;html=1;endArrow=none;endFill=0;" edge="1" parent="1" source="onbcupAO0g3e7C_Z6MhB-3" target="onbcupAO0g3e7C_Z6MhB-2">
          <mxGeometry relative="1" as="geometry">
            <mxPoint x="610" y="190" as="sourcePoint" />
          </mxGeometry>
        </mxCell>
        <mxCell id="onbcupAO0g3e7C_Z6MhB-3" value="Actor" style="shape=umlActor;verticalLabelPosition=bottom;verticalAlign=top;html=1;outlineConnect=0;" vertex="1" parent="1">
          <mxGeometry x="600" y="170" width="30" height="60" as="geometry" />
        </mxCell>
      </root>
    </mxGraphModel>
  </diagram>
</mxfile>
